<svg width="35" height="35" viewBox="0 0 35 35" fill="none" xmlns="http://www.w3.org/2000/svg">
<path d="M17.5379 21.6621L19.6 23.7256L25.7877 17.5379L19.6 11.3502L17.5379 13.4123L20.2038 16.0796L9.2123 16.0796L9.2123 18.9963L20.2038 18.9963L17.5379 21.6621Z" fill="white"/>
<path fill-rule="evenodd" clip-rule="evenodd" d="M7.29162 1.45837C5.74453 1.45837 4.2608 2.07295 3.16683 3.16692C2.07287 4.26088 1.45829 5.74461 1.45829 7.29171L1.45829 27.7084C1.45829 29.2555 2.07287 30.7392 3.16683 31.8332C4.26079 32.9271 5.74452 33.5417 7.29162 33.5417L27.7083 33.5417C29.2554 33.5417 30.7391 32.9271 31.8331 31.8332C32.927 30.7392 33.5416 29.2555 33.5416 27.7084L33.5416 7.29171C33.5416 5.74461 32.927 4.26088 31.8331 3.16692C30.7391 2.07296 29.2554 1.45837 27.7083 1.45837L7.29162 1.45837ZM4.37496 7.29171L4.37495 27.7084C4.37495 28.4819 4.68225 29.2238 5.22923 29.7708C5.77621 30.3178 6.51807 30.625 7.29162 30.625L27.7083 30.625C28.4818 30.625 29.2237 30.3178 29.7707 29.7708C30.3177 29.2238 30.625 28.4819 30.625 27.7084L30.625 7.29171C30.625 6.51816 30.3177 5.77629 29.7707 5.22931C29.2237 4.68233 28.4818 4.37504 27.7083 4.37504L7.29162 4.37504C6.51807 4.37504 5.77621 4.68233 5.22923 5.22931C4.68225 5.77629 4.37496 6.51816 4.37496 7.29171Z" fill="white"/>
</svg>
