<svg width="40" height="40" viewBox="0 0 40 40" fill="none" xmlns="http://www.w3.org/2000/svg">
<g id="ic:outline-photo-camera">
<path id="Vector" d="M23.5334 6.66667L26.5834 10H33.3334V30H6.66671V10H13.4167L16.4667 6.66667H23.5334ZM25 3.33333H15L11.95 6.66667H6.66671C4.83337 6.66667 3.33337 8.16667 3.33337 10V30C3.33337 31.8333 4.83337 33.3333 6.66671 33.3333H33.3334C35.1667 33.3333 36.6667 31.8333 36.6667 30V10C36.6667 8.16667 35.1667 6.66667 33.3334 6.66667H28.05L25 3.33333ZM20 15C22.75 15 25 17.25 25 20C25 22.75 22.75 25 20 25C17.25 25 15 22.75 15 20C15 17.25 17.25 15 20 15ZM20 11.6667C15.4 11.6667 11.6667 15.4 11.6667 20C11.6667 24.6 15.4 28.3333 20 28.3333C24.6 28.3333 28.3334 24.6 28.3334 20C28.3334 15.4 24.6 11.6667 20 11.6667Z" fill="#D47F00"/>
</g>
</svg>
