<svg width="60" height="60" viewBox="0 0 60 60" fill="none" xmlns="http://www.w3.org/2000/svg">
<g id="maki:car">
<path id="Vector" d="M55.36 27.408L50.4 22.8L46 14C45.6222 13.3856 45.0925 12.8788 44.462 12.5285C43.8314 12.1782 43.1213 11.9962 42.4 12H17.6C16.8787 11.9962 16.1686 12.1782 15.538 12.5285C14.9075 12.8788 14.3778 13.3856 14 14L9.6 22.8L4.64 27.408C4.43794 27.5954 4.27679 27.8225 4.16666 28.0751C4.05652 28.3278 3.99978 28.6004 4 28.876V46C4 46.5304 4.21071 47.0391 4.58579 47.4142C4.96086 47.7893 5.46957 48 6 48H14C14.8 48 16 47.2 16 46.4V44H44V46C44 46.8 44.8 48 45.6 48H54C54.5304 48 55.0391 47.7893 55.4142 47.4142C55.7893 47.0391 56 46.5304 56 46V28.876C56.0002 28.6004 55.9435 28.3278 55.8333 28.0751C55.7232 27.8225 55.5621 27.5954 55.36 27.408ZM18 16H42L46 24H14L18 16ZM20 34.4C20 35.2 18.8 36 18 36H9.6C8.8 36 8 34.8 8 34V29.6C8.4 28.4 9.2 27.6 10.4 28L18.4 29.6C19.2 29.6 20 30.8 20 31.6V34.4ZM52 34C52 34.8 51.2 36 50.4 36H42C41.2 36 40 35.2 40 34.4V31.6C40 30.8 40.8 29.6 41.6 29.6L49.6 28C50.8 27.6 51.6 28.4 52 29.6V34Z" fill="black"/>
</g>
</svg>
