<svg width="12" height="20" viewBox="0 0 12 20" fill="none" xmlns="http://www.w3.org/2000/svg">
<path d="M11.1172 5C10.6562 5 10.2852 5.37109 10.2852 5.83203V14.1641C10.2852 16.4648 8.42188 18.332 6.11719 18.332C3.8125 18.332 1.94922 16.4648 1.94922 14.1641V4.16406C1.94922 2.78516 3.06641 1.66406 4.44922 1.66406C5.83203 1.66406 6.94922 2.78516 6.94922 4.16406V12.5C6.94922 12.9609 6.57422 13.332 6.11719 13.332C5.66016 13.332 5.28516 12.9609 5.28516 12.5V5.83203C5.28516 5.37109 4.91016 5 4.45312 5C3.99219 5 3.62109 5.37109 3.62109 5.83203V12.5C3.62109 13.8828 4.73828 15 6.12109 15C7.50391 15 8.62109 13.8828 8.62109 12.5V4.16797C8.61719 1.86719 6.75 0 4.44922 0C2.14844 0 0.285156 1.86719 0.285156 4.16797V14.168C0.285156 17.3906 2.89844 20 6.11719 20C9.33594 20 11.9492 17.3867 11.9492 14.168V5.83203C11.9492 5.37109 11.5781 5 11.1172 5Z" fill="#BFBFBF"/>
</svg>
