<svg width="12" height="12" viewBox="0 0 12 12" fill="none" xmlns="http://www.w3.org/2000/svg">
<g id="mingcute:copyright-fill" clip-path="url(#clip0_66_180)">
<g id="Group">
<path id="Vector" fill-rule="evenodd" clip-rule="evenodd" d="M6 0C2.6862 0 0 2.6862 0 6C0 9.3138 2.6862 12 6 12C9.3138 12 12 9.3138 12 6C12 2.6862 9.3138 0 6 0ZM4.2 6C4.20004 5.6344 4.31141 5.27747 4.51928 4.97672C4.72716 4.67597 5.0217 4.44565 5.36369 4.31641C5.70569 4.18717 6.07893 4.16513 6.43376 4.25323C6.78859 4.34134 7.10818 4.5354 7.35 4.8096C7.45534 4.92895 7.60378 5.00156 7.76267 5.01146C7.92155 5.02136 8.07785 4.96774 8.1972 4.8624C8.31655 4.75706 8.38916 4.60862 8.39906 4.44974C8.40896 4.29085 8.35534 4.13455 8.25 4.0152C7.84692 3.55823 7.31424 3.23483 6.72284 3.08804C6.13144 2.94126 5.50937 2.97804 4.93939 3.1935C4.36941 3.40896 3.87855 3.79288 3.53214 4.29417C3.18572 4.79546 3.00016 5.39036 3.00016 5.9997C3.00016 6.60904 3.18572 7.20394 3.53214 7.70523C3.87855 8.20652 4.36941 8.59044 4.93939 8.8059C5.50937 9.02136 6.13144 9.05814 6.72284 8.91136C7.31424 8.76457 7.84692 8.44117 8.25 7.9842C8.30212 7.92511 8.34209 7.85632 8.36763 7.78178C8.39317 7.70724 8.40378 7.6284 8.39885 7.54975C8.39392 7.47111 8.37355 7.39421 8.3389 7.32344C8.30424 7.25267 8.25599 7.18942 8.1969 7.1373C8.13781 7.08518 8.06902 7.04521 7.99448 7.01967C7.91994 6.99413 7.84109 6.98352 7.76245 6.98845C7.68381 6.99338 7.60691 7.01375 7.53614 7.04841C7.46537 7.08306 7.40212 7.13131 7.35 7.1904C7.10818 7.4646 6.78859 7.65866 6.43376 7.74677C6.07893 7.83487 5.70569 7.81283 5.36369 7.68359C5.0217 7.55435 4.72716 7.32403 4.51928 7.02328C4.31141 6.72253 4.20004 6.3656 4.2 6Z" fill="#ECECEC"/>
</g>
</g>
<defs>
<clipPath id="clip0_66_180">
<rect width="12" height="12" fill="white"/>
</clipPath>
</defs>
</svg>
