<svg width="60" height="60" viewBox="0 0 60 60" fill="none" xmlns="http://www.w3.org/2000/svg">
<g id="la:file-signature">
<path id="Vector" d="M11.25 5.625V54.375H48.75V18L48.1875 17.4375L36.9375 6.1875L36.375 5.625H11.25ZM15 9.375H33.75V20.625H45V50.625H15V9.375ZM37.5 12L42.375 16.875H37.5V12ZM18.75 24.375V28.125H41.25V24.375H18.75ZM25.3125 30C23.625 30 22.3125 31.125 21.5625 32.4375C20.8125 33.75 20.625 35.4375 20.625 37.3125C20.625 38.4375 21 39.5625 21.1875 40.6875C20.4375 40.875 19.6875 41.4375 18.75 41.4375V45.1875C20.0625 45.1875 21.375 45 22.5 44.625C22.6875 45 22.6875 45.1875 23.0625 45.5625C23.8125 46.3125 24.9375 46.875 26.25 46.875C29.25 46.875 31.125 44.8125 32.4375 43.3125C32.625 42.9375 32.8125 42.75 33 42.5625C33 42.75 33 42.9375 33.1875 43.125C33.375 43.5 33.5625 43.875 33.9375 44.25C34.3125 44.625 35.0625 45 35.625 45C36.75 45 37.5 44.25 37.875 43.875C38.25 43.5 38.625 42.9375 39 42.5625C39.75 41.8125 40.3125 41.25 41.0625 41.25V37.5C38.8125 37.5 37.125 38.8125 36.1875 39.9375C36.1875 39.75 36.1875 39.5625 36 39.375C35.8125 39 35.625 38.625 35.25 38.0625C34.875 37.5 34.3125 37.5 33.75 37.5C32.25 37.5 31.6875 38.4375 31.125 39C30.5625 39.5625 30 40.3125 29.625 41.0625C28.5 42.375 27.75 43.125 26.25 43.125C26.0625 43.125 26.0625 42.9375 25.875 42.9375C26.0625 42.9375 26.0625 42.75 26.25 42.75C28.3125 41.0625 30 38.8125 30 35.8125C30 34.3125 29.625 33 28.875 31.875C28.125 30.75 26.8125 30 25.3125 30ZM25.125 33.75C25.6875 33.75 25.6875 33.75 25.875 34.125C26.0625 34.5 26.25 35.0625 26.25 36C26.25 37.125 25.6875 38.25 24.75 39.1875C24.75 38.625 24.375 37.875 24.375 37.5C24.375 36 24.5625 34.875 24.9375 34.3125C25.125 33.9375 25.125 33.75 25.125 33.75Z" fill="black"/>
</g>
</svg>
