<svg width="36" height="36" viewBox="0 0 36 36" fill="none" xmlns="http://www.w3.org/2000/svg">
<g id="solar:like-bold">
<g id="Group">
<path id="Vector" d="M30.4049 24.3975L31.4624 18.2775C31.5245 17.9188 31.5074 17.5509 31.4124 17.1995C31.3175 16.848 31.1469 16.5216 30.9125 16.243C30.6782 15.9644 30.3859 15.7404 30.056 15.5866C29.726 15.4327 29.3665 15.3529 29.0024 15.3525H21.2309C21.0496 15.3526 20.8704 15.3131 20.7058 15.2369C20.5412 15.1607 20.3952 15.0496 20.2778 14.9113C20.1605 14.773 20.0747 14.6108 20.0264 14.436C19.978 14.2612 19.9683 14.0779 19.9979 13.899L20.9924 7.83151C21.1538 6.84636 21.1078 5.83838 20.8574 4.87201C20.7503 4.47271 20.5439 4.10698 20.2576 3.80881C19.9712 3.51063 19.6141 3.28969 19.2194 3.16651L19.0019 3.09601C18.5102 2.93805 17.9766 2.97455 17.5109 3.19801C17.0009 3.44401 16.6289 3.89251 16.4909 4.42501L15.7769 7.17601C15.5496 8.05145 15.2193 8.89685 14.7929 9.69451C14.1704 10.86 13.2074 11.7945 12.2054 12.657L10.0469 14.517C9.74749 14.7758 9.51362 15.1018 9.36448 15.4684C9.21534 15.835 9.15518 16.2317 9.18894 16.626L10.4069 30.7155C10.4606 31.3386 10.746 31.919 11.2067 32.3419C11.6674 32.7649 12.27 32.9997 12.8954 33H19.8674C25.0904 33 29.5469 29.361 30.4049 24.3975Z" fill="#A85100"/>
<path id="Vector_2" fill-rule="evenodd" clip-rule="evenodd" d="M4.45199 14.2274C4.74188 14.2147 5.02546 14.3145 5.24349 14.506C5.46151 14.6975 5.59712 14.9658 5.62199 15.2549L7.07699 32.1089C7.10164 32.3599 7.07487 32.6132 6.99831 32.8535C6.92175 33.0938 6.79701 33.316 6.63171 33.5064C6.46641 33.6969 6.26402 33.8517 6.0369 33.9613C5.80978 34.0709 5.5627 34.1331 5.31075 34.144C5.0588 34.1549 4.80726 34.1144 4.57151 34.0248C4.33575 33.9353 4.12073 33.7986 3.93956 33.6232C3.7584 33.4477 3.6149 33.2372 3.51783 33.0044C3.42076 32.7717 3.37216 32.5216 3.375 32.2694V15.3509C3.37512 15.0609 3.4872 14.7822 3.68787 14.5729C3.88854 14.3635 4.16228 14.2398 4.45199 14.2274Z" fill="#A85100"/>
</g>
</g>
</svg>
