<svg width="29" height="29" viewBox="0 0 29 29" fill="none" xmlns="http://www.w3.org/2000/svg">
<g id="iconamoon:arrow-up-2-fill">
<path id="Vector" fill-rule="evenodd" clip-rule="evenodd" d="M8.45835 10.8749C8.2194 10.875 7.98583 10.9459 7.78717 11.0787C7.58851 11.2114 7.43367 11.4001 7.34224 11.6209C7.2508 11.8417 7.22687 12.0846 7.27348 12.3189C7.32008 12.5533 7.43512 12.7686 7.60405 12.9376L13.6457 18.9792C13.8723 19.2058 14.1796 19.333 14.5 19.333C14.8204 19.333 15.1277 19.2058 15.3543 18.9792L21.396 12.9376C21.5649 12.7686 21.6799 12.5533 21.7266 12.3189C21.7732 12.0846 21.7492 11.8417 21.6578 11.6209C21.5664 11.4001 21.4115 11.2114 21.2129 11.0787C21.0142 10.9459 20.7806 10.875 20.5417 10.8749L8.45835 10.8749Z" fill="#FFB802"/>
</g>
</svg>
