<svg width="32" height="32" viewBox="0 0 32 32" fill="none" xmlns="http://www.w3.org/2000/svg">
<g id="wpf:calendar" clip-path="url(#clip0_66_146)">
<path id="Vector" d="M8.61539 0C7.93723 0 7.38462 0.552615 7.38462 1.23077V4.92308C7.38462 5.60123 7.93723 6.15385 8.61539 6.15385C9.29354 6.15385 9.84615 5.60123 9.84615 4.92308V1.23077C9.84615 0.552615 9.29354 0 8.61539 0ZM23.3846 0C22.7065 0 22.1538 0.552615 22.1538 1.23077V4.92308C22.1538 5.60123 22.7065 6.15385 23.3846 6.15385C24.0628 6.15385 24.6154 5.60123 24.6154 4.92308V1.23077C24.6154 0.552615 24.0628 0 23.3846 0ZM3.69231 2.46154C1.65415 2.46154 0 4.11569 0 6.15385V28.3077C0 30.3458 1.65415 32 3.69231 32H28.3077C30.3458 32 32 30.3458 32 28.3077V6.15385C32 4.11569 30.3458 2.46154 28.3077 2.46154H25.8462V4.92308C25.8462 5.57592 25.5868 6.20202 25.1252 6.66365C24.6636 7.12528 24.0375 7.38462 23.3846 7.38462C22.7318 7.38462 22.1057 7.12528 21.644 6.66365C21.1824 6.20202 20.9231 5.57592 20.9231 4.92308V2.46154H11.0769V4.92308C11.0769 5.57592 10.8176 6.20202 10.356 6.66365C9.89433 7.12528 9.26823 7.38462 8.61539 7.38462C7.96254 7.38462 7.33644 7.12528 6.87481 6.66365C6.41319 6.20202 6.15385 5.57592 6.15385 4.92308V2.46154H3.69231ZM2.46154 11.0769H29.5385V28.3077C29.5385 28.9858 28.9858 29.5385 28.3077 29.5385H3.69231C3.01415 29.5385 2.46154 28.9858 2.46154 28.3077V11.0769ZM11.0769 14.7692V17.616H17.0006L12.3458 27.0388H16.6154L20.8849 16.6535V14.7692H11.0769Z" fill="#A85100"/>
</g>
<defs>
<clipPath id="clip0_66_146">
<rect width="32" height="32" fill="white"/>
</clipPath>
</defs>
</svg>
