<svg width="34" height="41" viewBox="0 0 34 41" fill="none" xmlns="http://www.w3.org/2000/svg">
<g id="healthicons:cleaning" clip-path="url(#clip0_66_138)">
<g id="Group">
<path id="Vector" fill-rule="evenodd" clip-rule="evenodd" d="M14.712 17.845L6.54579 2.26098C6.473 2.12342 6.42789 1.97279 6.41303 1.81771C6.39817 1.66262 6.41385 1.50611 6.45918 1.35712C6.55073 1.05621 6.75748 0.804175 7.03395 0.656453C7.31042 0.50873 7.63396 0.477424 7.9334 0.56942C8.08167 0.614972 8.21955 0.689425 8.33919 0.788527C8.45882 0.887629 8.55786 1.00944 8.63065 1.14701L16.7981 16.7311L18.5949 15.7701C19.1425 15.4776 19.7422 15.2963 20.3595 15.2366C20.9769 15.1769 21.5999 15.2401 22.193 15.4224C22.7861 15.6047 23.3376 15.9027 23.8161 16.2992C24.2946 16.6958 24.6907 17.1831 24.9817 17.7335L25.7467 19.1797L33.8571 31.1072L23.5414 36.6178L19.9679 29.5199L17.8618 30.5911L21.4566 37.7329L17.0342 40.0949L11.7276 26.6679L10.9638 25.2229C10.6726 24.6727 10.4921 24.0702 10.4327 23.4498C10.3732 22.8295 10.4359 22.2034 10.6172 21.6074C10.7986 21.0115 11.0949 20.4572 11.4894 19.9763C11.8839 19.4954 12.3688 19.0974 12.9164 18.8048L14.712 17.845ZM19.7023 17.8664L14.0238 20.8999C13.75 21.0462 13.5075 21.2452 13.3103 21.4856C13.113 21.7261 12.9648 22.0032 12.8742 22.3012C12.7835 22.5992 12.7522 22.9122 12.7819 23.2224C12.8116 23.5326 12.9019 23.8338 13.0475 24.1089L13.8113 25.5539L23.6607 20.2913L22.8957 18.8475C22.7501 18.5724 22.552 18.3287 22.3128 18.1305C22.0735 17.9323 21.7977 17.7834 21.5012 17.6923C21.2046 17.6012 20.8931 17.5697 20.5845 17.5995C20.2758 17.6294 19.976 17.7201 19.7023 17.8664Z" fill="#A85100"/>
<path id="Vector_2" d="M9.64272 29.4214C9.44245 29.1797 9.15485 29.0278 8.84314 28.9991C8.53144 28.9704 8.22115 29.0673 7.9805 29.2684H7.98286L7.96988 29.2779L7.8955 29.3348C7.78986 29.4146 7.68199 29.4914 7.57203 29.565C7.27925 29.7607 6.84245 30.0277 6.2805 30.2958C4.83609 30.9934 3.2553 31.3594 1.65272 31.367C1.33962 31.367 1.03934 31.492 0.817945 31.7145C0.596548 31.937 0.472168 32.2388 0.472168 32.5534C0.472168 32.868 0.596548 33.1698 0.817945 33.3923C1.03934 33.6147 1.33962 33.7397 1.65272 33.7397C3.60655 33.7322 5.53419 33.2876 7.29578 32.4383C7.84527 32.1769 8.37551 31.8763 8.88245 31.5391C9.07224 31.4115 9.25732 31.2769 9.43731 31.1357L9.47272 31.1084L9.48453 31.0989L9.48807 31.0942H9.49043L9.49161 31.0918C9.732 30.8904 9.88295 30.6013 9.91129 30.2881C9.93962 29.9748 9.84302 29.6631 9.64272 29.4214ZM12.0794 35.454C12.1655 35.5836 12.2253 35.729 12.2554 35.8818C12.2856 36.0347 12.2854 36.192 12.2551 36.3448C12.2247 36.4976 12.1647 36.6429 12.0784 36.7724C11.9922 36.9019 11.8814 37.013 11.7524 37.0995L11.75 37.1018L11.7453 37.1042L11.7335 37.1113L11.6969 37.135C11.4925 37.2657 11.285 37.3915 11.0747 37.5123C10.6604 37.7508 10.0713 38.0675 9.36293 38.3831C7.96988 39.0059 6.02196 39.6714 4.01383 39.6714C3.70073 39.6714 3.40045 39.5465 3.17906 39.324C2.95766 39.1015 2.83328 38.7997 2.83328 38.4851C2.83328 38.1705 2.95766 37.8687 3.17906 37.6462C3.40045 37.4237 3.70073 37.2988 4.01383 37.2988C5.5462 37.2988 7.14231 36.778 8.40432 36.2144C9.06181 35.9196 9.69983 35.5828 10.3145 35.2061C10.3489 35.1857 10.3828 35.1643 10.416 35.142L10.4396 35.1278L10.442 35.1254C10.5709 35.0389 10.7156 34.9788 10.8677 34.9485C11.0198 34.9182 11.1764 34.9183 11.3284 34.9488C11.4805 34.9794 11.6251 35.0397 11.7539 35.1264C11.8828 35.213 11.9934 35.3244 12.0794 35.454Z" fill="#A85100"/>
</g>
</g>
<defs>
<clipPath id="clip0_66_138">
<rect width="34" height="41" fill="white"/>
</clipPath>
</defs>
</svg>
