<svg width="38" height="38" viewBox="0 0 38 38" fill="none" xmlns="http://www.w3.org/2000/svg">
<g id="material-symbols:tools-power-drill">
<path id="Vector" d="M10.6875 15.8333H17.8125C18.1291 15.8333 18.4062 15.7146 18.6437 15.4771C18.8812 15.2396 19 14.9625 19 14.6458C19 14.3292 18.8812 14.0521 18.6437 13.8146C18.4062 13.5771 18.1291 13.4583 17.8125 13.4583H10.6875C10.3708 13.4583 10.0937 13.5771 9.85621 13.8146C9.61871 14.0521 9.49996 14.3292 9.49996 14.6458C9.49996 14.9625 9.61871 15.2396 9.85621 15.4771C10.0937 15.7146 10.3708 15.8333 10.6875 15.8333ZM10.6875 11.875H17.8125C18.1291 11.875 18.4062 11.7563 18.6437 11.5188C18.8812 11.2813 19 11.0042 19 10.6875C19 10.3708 18.8812 10.0938 18.6437 9.85625C18.4062 9.61875 18.1291 9.5 17.8125 9.5H10.6875C10.3708 9.5 10.0937 9.61875 9.85621 9.85625C9.61871 10.0938 9.49996 10.3708 9.49996 10.6875C9.49996 11.0042 9.61871 11.2813 9.85621 11.5188C10.0937 11.7563 10.3708 11.875 10.6875 11.875ZM26.9166 17.4167V7.91667H28.5C29.3708 7.91667 30.1165 8.227 30.7372 8.84767C31.3579 9.46833 31.6677 10.2136 31.6666 11.0833H34.8333C35.2819 11.0833 35.6582 11.2353 35.9622 11.5393C36.2662 11.8433 36.4177 12.2191 36.4166 12.6667C36.4166 13.1153 36.2646 13.4916 35.9606 13.7956C35.6566 14.0996 35.2808 14.2511 34.8333 14.25H31.6666C31.6666 15.1208 31.3563 15.8666 30.7356 16.4873C30.115 17.1079 29.3697 17.4177 28.5 17.4167H26.9166ZM19 24.5417H9.49996V20.5833C7.75829 20.5833 6.26732 19.9632 5.02704 18.7229C3.78676 17.4826 3.16663 15.9917 3.16663 14.25V11.0833C3.16663 9.34167 3.78676 7.85069 5.02704 6.61042C6.26732 5.37014 7.75829 4.75 9.49996 4.75H22.1666C23.0375 4.75 23.7832 5.06033 24.4039 5.681C25.0245 6.30167 25.3343 7.04689 25.3333 7.91667V17.4167C25.3333 18.2875 25.023 19.0333 24.4023 19.6539C23.7816 20.2746 23.0364 20.5844 22.1666 20.5833H19V24.5417ZM8.70829 33.25C8.04857 33.25 7.48754 33.0188 7.02521 32.5565C6.56288 32.0942 6.33224 31.5337 6.33329 30.875V28.5C6.33329 27.8403 6.56446 27.2793 7.02679 26.8169C7.48913 26.3546 8.04963 26.1239 8.70829 26.125H19.7916C20.4513 26.125 21.0124 26.3562 21.4747 26.8185C21.937 27.2808 22.1677 27.8413 22.1666 28.5V30.875C22.1666 31.5347 21.9355 32.0958 21.4731 32.5581C21.0108 33.0204 20.4503 33.2511 19.7916 33.25H8.70829Z" fill="#A85100"/>
</g>
</svg>
