<svg width="22" height="20" viewBox="0 0 22 20" fill="none" xmlns="http://www.w3.org/2000/svg">
<path d="M12.0381 9.43238L10.9162 8.31004C10.6593 8.053 10.311 7.90816 9.94749 7.90719C9.58403 7.90623 9.23497 8.04921 8.97663 8.30488L1.17651 15.5034C0.892484 15.7711 0.706 16.1123 0.688813 16.4943C0.680543 16.6838 0.711417 16.8729 0.779507 17.0499C0.847596 17.2269 0.95144 17.3879 1.08455 17.523L2.76034 19.2172C2.76123 19.2183 2.76224 19.2193 2.76334 19.2202C3.0223 19.4783 3.37268 19.6238 3.73831 19.625H3.78901C4.171 19.6108 4.51303 19.4316 4.78459 19.145L12.0334 11.3806C12.162 11.2532 12.2641 11.1016 12.3339 10.9346C12.4037 10.7676 12.4399 10.5885 12.4403 10.4075C12.4408 10.2265 12.4055 10.0472 12.3365 9.87983C12.2674 9.7125 12.1661 9.56044 12.0381 9.43238ZM21.0547 7.16406L21.0414 7.15074L19.5689 5.69324C19.4826 5.60727 19.3802 5.53924 19.2675 5.49307C19.1548 5.44691 19.0341 5.42352 18.9123 5.42426C18.715 5.42444 18.5227 5.48668 18.3627 5.60215C18.3627 5.58367 18.3653 5.56563 18.3666 5.54973C18.3859 5.27043 18.416 4.84848 18.1431 4.46606C17.8187 4.02881 17.4626 3.61605 17.0775 3.23113C17.0765 3.22988 17.0753 3.22873 17.0741 3.2277C16.5017 2.66395 15.2561 1.60219 13.3478 0.824025C12.6241 0.527009 11.8493 0.374468 11.0671 0.375001C9.71096 0.375001 8.67971 0.986876 8.28483 1.34953C8.06123 1.5631 7.85731 1.79636 7.67553 2.04649C7.58869 2.16636 7.54285 2.31105 7.54484 2.45906C7.54682 2.60707 7.59653 2.75049 7.68656 2.86798C7.77658 2.98548 7.90213 3.07078 8.04453 3.11121C8.18692 3.15163 8.33856 3.14501 8.4769 3.09234C8.59741 3.0473 8.72052 3.00956 8.84557 2.97934C9.106 2.92426 9.37309 2.90761 9.63834 2.92992C10.2051 2.97676 10.8754 3.2582 11.1719 3.49238C11.6746 3.89672 11.9165 4.44156 11.9565 5.25797C11.9642 5.42211 11.6248 6.03742 11.0971 6.73953C10.9966 6.87203 10.9475 7.03648 10.959 7.20239C10.9705 7.36831 11.0417 7.52445 11.1594 7.64188L12.638 9.12043C12.7622 9.24497 12.9295 9.31715 13.1053 9.3221C13.2812 9.32706 13.4522 9.26442 13.5833 9.14707C14.0014 8.77367 14.6382 8.21078 14.8608 8.07285C15.1912 7.86961 15.4275 7.83051 15.4924 7.82363C15.6608 7.80712 15.8301 7.84283 15.9775 7.9259C15.9783 7.93326 15.9775 7.94068 15.9752 7.94771C15.9729 7.95474 15.9691 7.96121 15.9642 7.96672L15.886 8.04106L15.8731 8.05309C15.7867 8.13918 15.7182 8.24151 15.6715 8.3542C15.6248 8.46688 15.6009 8.58769 15.6011 8.70967C15.6013 8.83164 15.6256 8.95237 15.6727 9.06491C15.7197 9.17744 15.7886 9.27955 15.8753 9.36535L17.3474 10.8224C17.4336 10.9083 17.5361 10.9763 17.6488 11.0224C17.7615 11.0685 17.8822 11.0918 18.0039 11.091C18.2484 11.0914 18.4833 10.9957 18.6579 10.8246L21.0427 8.46902C21.0508 8.46086 21.059 8.45227 21.0667 8.44367C21.2267 8.2683 21.3144 8.03888 21.3122 7.8015C21.31 7.56413 21.218 7.3364 21.0547 7.16406Z" fill="#1D1D1D"/>
</svg>
