<svg width="18" height="18" viewBox="0 0 18 18" fill="none" xmlns="http://www.w3.org/2000/svg">
<path fill-rule="evenodd" clip-rule="evenodd" d="M5.66669 6.50001C5.66691 5.29489 6.04038 4.11941 6.73575 3.13515C7.43113 2.15089 8.41429 1.40615 9.55009 1.00331C10.6859 0.600471 11.9186 0.559295 13.0787 0.885445C14.2389 1.21159 15.2695 1.88906 16.029 2.82472C16.7886 3.76039 17.2396 4.90832 17.3203 6.11074C17.4009 7.31316 17.1072 8.51105 16.4794 9.53976C15.8516 10.5685 14.9207 11.3775 13.8145 11.8556C12.7083 12.3338 11.4811 12.4576 10.3017 12.21L9.00002 13.5117C8.68753 13.8243 8.26368 13.9999 7.82169 14H7.33335C7.33335 14.442 7.15776 14.866 6.8452 15.1785C6.53264 15.4911 6.10871 15.6667 5.66669 15.6667C5.66669 16.1087 5.49109 16.5326 5.17853 16.8452C4.86597 17.1577 4.44205 17.3333 4.00002 17.3333H2.33335C1.89133 17.3333 1.4674 17.1577 1.15484 16.8452C0.842282 16.5326 0.666687 16.1087 0.666687 15.6667V13.5117C0.666781 13.0697 0.842438 12.6458 1.15502 12.3333L5.79002 7.69834C5.70782 7.3042 5.66649 6.90263 5.66669 6.50001ZM11.5 4.00001C11.279 4.00001 11.067 4.08781 10.9108 4.24409C10.7545 4.40037 10.6667 4.61233 10.6667 4.83334C10.6667 5.05436 10.7545 5.26632 10.9108 5.4226C11.067 5.57888 11.279 5.66668 11.5 5.66668C11.721 5.66668 11.933 5.75447 12.0893 5.91075C12.2456 6.06703 12.3334 6.279 12.3334 6.50001C12.3334 6.72102 12.4212 6.93299 12.5774 7.08927C12.7337 7.24555 12.9457 7.33334 13.1667 7.33334C13.3877 7.33334 13.5997 7.24555 13.7559 7.08927C13.9122 6.93299 14 6.72102 14 6.50001C14 5.83697 13.7366 5.20108 13.2678 4.73224C12.7989 4.2634 12.1631 4.00001 11.5 4.00001Z" fill="#1D1D1D"/>
</svg>
