<svg width="30" height="30" viewBox="0 0 30 30" fill="none" xmlns="http://www.w3.org/2000/svg">
<g id="foundation:mail">
<path id="Vector" d="M25.7832 6.05664H4.21682C4.01347 6.05688 3.81852 6.13778 3.67476 6.2816C3.531 6.42542 3.45017 6.62039 3.45002 6.82374V8.36694C3.45002 8.43804 3.52712 8.51964 3.59012 8.55264L14.9259 15.0275C14.955 15.0441 14.9879 15.0527 15.0213 15.0524C15.0555 15.0525 15.0891 15.0434 15.1185 15.026L26.1117 8.55894C26.1735 8.52444 26.3373 8.43324 26.3988 8.39124C26.4732 8.34054 26.55 8.29464 26.55 8.20374V6.82344C26.5498 6.62015 26.4689 6.42525 26.3252 6.28149C26.1814 6.13774 25.9865 6.05688 25.7832 6.05664ZM26.4543 10.6937C26.4248 10.6769 26.3914 10.6682 26.3574 10.6684C26.3234 10.6686 26.2901 10.6777 26.2608 10.6949L20.0397 14.3552C20.0149 14.3697 19.9937 14.3895 19.9776 14.4133C19.9616 14.4371 19.951 14.4641 19.9469 14.4925C19.9427 14.5209 19.945 14.5499 19.9535 14.5773C19.962 14.6047 19.9766 14.6298 19.9962 14.6507L26.2182 21.3578C26.236 21.3772 26.2577 21.3926 26.2818 21.4032C26.3059 21.4137 26.332 21.4191 26.3583 21.419C26.4091 21.419 26.4578 21.3987 26.4938 21.3628C26.5297 21.3269 26.5499 21.2782 26.55 21.2273V10.8602C26.5501 10.8265 26.5414 10.7934 26.5246 10.7641C26.5078 10.7349 26.4835 10.7106 26.4543 10.6937ZM18.2469 15.5843C18.2174 15.5522 18.1777 15.5311 18.1345 15.5247C18.0913 15.5182 18.0472 15.5268 18.0096 15.5489L15.516 17.0162C15.3699 17.1007 15.2044 17.1456 15.0356 17.1467C14.8669 17.1478 14.7008 17.105 14.5536 17.0225L12.3591 15.7688C12.3237 15.7487 12.2828 15.7403 12.2422 15.7449C12.2017 15.7496 12.1638 15.767 12.1338 15.7946L3.80042 23.5244C3.77857 23.5449 3.76179 23.5701 3.75143 23.5982C3.74107 23.6262 3.7374 23.6563 3.74072 23.686C3.74404 23.7157 3.75426 23.7443 3.77056 23.7694C3.78687 23.7944 3.8088 23.8153 3.83462 23.8304C3.96422 23.9066 4.08932 23.9429 4.21652 23.9429H25.5624C25.5998 23.943 25.6363 23.9321 25.6675 23.9116C25.6987 23.891 25.7232 23.8618 25.7379 23.8274C25.7529 23.7933 25.7575 23.7555 25.7512 23.7188C25.7449 23.682 25.728 23.648 25.7025 23.6207L18.2469 15.5843ZM10.3002 14.8802C10.3223 14.8598 10.3393 14.8345 10.3497 14.8064C10.3602 14.7782 10.3639 14.7479 10.3606 14.7181C10.3572 14.6882 10.3469 14.6595 10.3304 14.6344C10.3139 14.6092 10.2918 14.5883 10.2657 14.5733L3.73592 10.8437C3.70677 10.8272 3.6738 10.8186 3.64029 10.8188C3.60678 10.819 3.57391 10.828 3.54496 10.8449C3.51602 10.8618 3.49201 10.8859 3.47535 10.915C3.45869 10.9441 3.44995 10.977 3.45002 11.0105V20.7965C3.4498 20.8339 3.46056 20.8705 3.48094 20.9019C3.50133 20.9332 3.53045 20.9578 3.56471 20.9728C3.59897 20.9877 3.63686 20.9923 3.67369 20.9859C3.71052 20.9796 3.74467 20.9625 3.77192 20.9369L10.3002 14.8802Z" fill="#A85100"/>
</g>
</svg>
