<svg width="60" height="60" viewBox="0 0 60 60" fill="none" xmlns="http://www.w3.org/2000/svg">
<g id="mdi:tape-measure">
<path id="Vector" d="M22.5 12.5C27.1413 12.5 31.5925 14.3437 34.8744 17.6256C38.1563 20.9075 40 25.3587 40 30H42.5V37.5H40V47.5H22.5C17.8587 47.5 13.4075 45.6563 10.1256 42.3744C6.84374 39.0925 5 34.6413 5 30C5 25.3587 6.84374 20.9075 10.1256 17.6256C13.4075 14.3437 17.8587 12.5 22.5 12.5ZM22.5 20C19.8478 20 17.3043 21.0536 15.4289 22.9289C13.5536 24.8043 12.5 27.3478 12.5 30C12.5 32.6522 13.5536 35.1957 15.4289 37.0711C17.3043 38.9464 19.8478 40 22.5 40C25.1522 40 27.6957 38.9464 29.5711 37.0711C31.4464 35.1957 32.5 32.6522 32.5 30C32.5 27.3478 31.4464 24.8043 29.5711 22.9289C27.6957 21.0536 25.1522 20 22.5 20ZM42.5 42.5H55V52.5H50V47.5H42.5V42.5Z" fill="black"/>
</g>
</svg>
